PathFileType	4	(X/Y/Z)	c:/Users/goper/Files/vsCode/490R/osim_files/C11/C11_SSWS_02.trc
DataRate	CameraRate	NumFrames	NumMarkers	Units                	OrigDataRate	OrigDataStartFrame	OrigNumFrames
120.00	120.00	6	36	mm	120.0	310	1238
                Frame#	Time	LPSI			LASI			LTH1			LTH2			LTH3			LTH4			LLFE			LMFE			LSH1			LSH2			LSH3			LSH4			LLMA			LMMA			LCAL			LMTP			LTOE			LMTP			RPSI			RASI			RTH1			RTH2			RTH3			RTH4			RLFE			RMFE			RSH1			RSH2			RSH3			RSH4			RLMA			RMMA			RCAL			RMTP			RTOE			RMTP		
		X1	Y1	Z1	X2	Y2	Z2	X3	Y3	Z3	X4	Y4	Z4	X5	Y5	Z5	X6	Y6	Z6	X7	Y7	Z7	X8	Y8	Z8	X9	Y9	Z9	X10	Y10	Z10	X11	Y11	Z11	X12	Y12	Z12	X13	Y13	Z13	X14	Y14	Z14	X15	Y15	Z15	X16	Y16	Z16	X17	Y17	Z17	X18	Y18	Z18	X19	Y19	Z19	X20	Y20	Z20	X21	Y21	Z21	X22	Y22	Z22	X23	Y23	Z23	X24	Y24	Z24	X25	Y25	Z25	X26	Y26	Z26	X27	Y27	Z27	X28	Y28	Z28	X29	Y29	Z29	X30	Y30	Z30	X31	Y31	Z31	X32	Y32	Z32	X33	Y33	Z33	X34	Y34	Z34	X35	Y35	Z35	X36	Y36	Z36

310	2.57500	0.00000	0.00000	0.00000	0.00000	0.00000	0.00000	2481.81250	618.68842	384.17862	2228.93921	541.46368	285.20990	2426.67505	605.52844	403.26480	2438.52026	561.58606	396.49567	2481.48706	494.18887	384.97833	2506.63794	385.76816	391.39929	2561.51367	405.51837	380.34045	2573.12598	362.35428	376.42441	0.00000	0.00000	0.00000	2525.70190	342.65732	385.69464	2620.13086	99.46509	298.40018	0.00000	0.00000	0.00000	2672.57227	68.59241	236.34868	2514.64868	42.38844	340.50101	2436.20117	58.29975	280.63965	2462.52661	48.38847	228.54356	2458.35864	985.84113	183.94177	2284.27026	960.50873	127.09835	2253.10718	602.22742	82.74346	0.00000	0.00000	0.00000	0.00000	0.00000	0.00000	0.00000	0.00000	0.00000	2174.72485	506.87369	104.28928	2175.71094	486.67422	220.40050	0.00000	0.00000	0.00000	0.00000	0.00000	0.00000	2133.62158	408.55618	91.78681	0.00000	0.00000	0.00000	2000.27820	112.68047	143.53511	1979.09070	153.66359	230.29079	2022.50220	57.06863	211.23399	1846.51050	180.49651	197.85251	1854.66174	180.33037	144.90321	1872.67688	123.71761	97.00132
311	2.58333	0.00000	0.00000	0.00000	0.00000	0.00000	0.00000	2473.46240	617.61938	383.56848	2220.89404	541.51617	286.10226	2418.32788	604.11078	402.74429	2430.31567	560.11298	395.91357	2473.59888	492.95148	384.45767	2500.36694	385.11404	391.07254	2554.89185	405.63028	380.41373	2567.11377	362.49353	376.48053	0.00000	0.00000	0.00000	2519.97217	342.16364	385.33737	2619.43311	100.26448	298.60205	0.00000	0.00000	0.00000	2672.20728	69.73586	236.63745	2514.54736	42.44630	340.45187	2436.02002	58.01810	280.63293	2461.76245	48.51336	228.37805	2449.48022	984.56952	184.57935	2275.61377	959.27924	126.56809	2241.12061	604.73608	83.82385	2221.63696	570.77783	89.69543	0.00000	0.00000	0.00000	2170.13599	589.50110	94.19559	0.00000	0.00000	0.00000	2163.52319	487.93787	221.76453	0.00000	0.00000	0.00000	0.00000	0.00000	0.00000	2121.52026	408.68381	93.53679	0.00000	0.00000	0.00000	1995.86963	110.36732	147.50296	1972.53711	150.55176	233.14603	2019.65491	55.61011	214.74075	1840.11182	172.33305	198.90247	1848.36987	173.24945	146.60684	1869.53186	117.05220	99.11505
312	2.59167	0.00000	0.00000	0.00000	0.00000	0.00000	0.00000	2464.95654	616.58923	382.88205	2212.83105	541.56940	286.99072	2410.51001	603.33356	402.71747	2422.05396	558.80853	395.44833	2465.74365	491.96362	384.04462	2493.93066	384.48853	390.64737	2548.09424	405.86923	380.23663	2560.92871	362.77316	376.40305	0.00000	0.00000	0.00000	2514.08154	341.62082	384.93109	2618.41406	100.55655	299.28180	0.00000	0.00000	0.00000	2671.72119	71.19411	236.93199	2514.44458	42.56204	340.40662	2435.78784	57.73027	280.62192	2460.81714	48.64530	228.19307	2440.22876	983.35699	185.18547	2266.41895	958.29260	126.18036	2229.48999	604.55359	84.58242	2208.55151	569.75854	89.94753	0.00000	0.00000	0.00000	2158.20386	590.20593	95.34995	0.00000	0.00000	0.00000	2151.73462	489.18881	223.08397	0.00000	0.00000	0.00000	0.00000	0.00000	0.00000	2109.52100	409.03088	95.50958	0.00000	0.00000	0.00000	1992.64246	107.69669	150.97665	1966.87073	147.21315	235.46249	2018.48962	54.09838	218.17210	1833.97278	161.58202	199.70485	1843.45825	164.97481	147.80981	1866.96765	109.51060	101.64821
313	2.60000	0.00000	0.00000	0.00000	0.00000	0.00000	0.00000	2456.32471	615.47974	382.16064	2204.74902	541.62341	287.87524	2401.25513	601.35101	401.68262	2413.81152	557.65747	395.08063	2457.82129	491.41995	382.81549	2487.34082	383.88965	390.14679	2541.16113	406.18613	379.99759	2554.66382	363.16577	376.25256	0.00000	0.00000	0.00000	2508.13550	341.33575	384.59665	2617.74536	102.52205	299.00287	0.00000	0.00000	0.00000	2671.13989	72.86356	237.13994	2514.30933	42.63758	340.34930	2435.53711	57.47013	280.68051	0.00000	0.00000	0.00000	2430.53101	982.20251	185.68950	2256.60791	957.36993	126.02533	2217.57886	605.13403	85.22128	2195.51001	568.29907	91.46950	0.00000	0.00000	0.00000	2145.83789	590.77960	96.68277	0.00000	0.00000	0.00000	2140.37012	490.34558	224.42412	0.00000	0.00000	0.00000	0.00000	0.00000	0.00000	2097.84106	409.13528	97.53105	0.00000	0.00000	0.00000	1990.82495	104.73061	153.97031	1964.74109	142.97592	240.50787	2018.71875	52.15873	221.22226	1829.79871	152.20972	202.32573	1839.55029	156.09889	150.57481	1865.63025	102.40022	105.22346
314	2.60833	0.00000	0.00000	0.00000	0.00000	0.00000	0.00000	2447.60083	614.39691	381.42764	2196.64844	541.67804	288.75580	2392.60425	600.03314	401.26297	2405.10205	556.06299	394.55740	2449.30469	489.80518	382.85510	2480.79980	383.40033	389.70300	2534.18042	406.62460	379.64267	2548.32251	363.69995	375.99911	0.00000	0.00000	0.00000	2502.32251	341.22250	384.17780	2616.71655	104.00053	299.20279	0.00000	0.00000	0.00000	2670.53662	74.99551	237.38861	2512.84546	40.69051	340.14780	2435.27124	57.08647	280.69781	0.00000	0.00000	0.00000	2420.48218	981.18219	185.99760	2245.76978	955.96063	125.88141	2205.39844	605.75330	85.81754	2183.10059	571.59161	92.31371	0.00000	0.00000	0.00000	2133.40747	591.53583	97.89089	0.00000	0.00000	0.00000	2129.35156	491.05511	225.63109	0.00000	0.00000	0.00000	0.00000	0.00000	0.00000	2086.70312	408.82397	99.47753	0.00000	0.00000	0.00000	1990.16333	101.57603	156.62244	1962.84778	138.57678	243.43965	2020.12073	49.97417	223.68913	1826.85803	145.16931	207.67062	1837.57336	147.67287	154.45955	1864.65662	94.89322	108.41455
315	2.61667	0.00000	0.00000	0.00000	0.00000	0.00000	0.00000	2438.74170	613.29785	380.77509	2188.52930	541.73334	289.63226	2384.51831	599.24585	401.29712	2396.51782	554.90131	394.04352	2440.75220	488.59232	382.13245	2474.22241	383.01294	389.26346	2527.08228	407.22781	379.23657	2541.93701	364.41055	375.66180	0.00000	0.00000	0.00000	2496.37549	341.05228	383.76495	2615.63354	105.89347	299.44766	0.00000	0.00000	0.00000	2669.82446	77.52975	237.65045	2512.69507	40.69290	340.07678	2434.94385	56.74380	280.70392	0.00000	0.00000	0.00000	2410.02075	980.22626	186.10413	2235.60938	955.70587	126.07347	2192.96851	606.24921	86.39759	2170.62036	570.90332	93.29539	0.00000	0.00000	0.00000	2120.84302	592.12659	99.18986	0.00000	0.00000	0.00000	2118.64771	491.26562	226.88652	2134.29053	385.80170	105.76336	2113.69873	345.57706	107.86597	2076.28076	407.79373	101.38496	0.00000	0.00000	0.00000	1989.29492	99.83556	159.00488	1961.11523	134.86894	245.95714	2020.82654	48.35140	225.02975	1824.42456	137.98805	211.35251	1834.84668	140.72922	158.79509	1861.91785	89.54922	110.97770
